<svg xmlns="http://www.w3.org/2000/svg" version="1.1" xmlns:xlink="http://www.w3.org/1999/xlink" xmlns:svgjs="http://svgjs.dev/svgjs" width="100%" height="100%" viewBox="0 0 1000 600"><rect width="1000" height="600" x="0" y="0" fill="#ee4e34"/><g><circle r="166.66666666666666" cx="279.3373819986979" cy="301.55961117180755" fill="#fcedda" transform="matrix(1.1094275207381203,0,0,1.1094275207381201,0,-34.55853582940365)"/><path d="M231.28239621047402 376.5595654840495L231.28239621047402 226.55956082250484L271.30276405296354 226.55956082250484Q295.070585565526 226.55956082250484 305.7325003571511 235.35793176802926Q316.39441514877615 244.15630271355366 316.39441514877615 262.18074319223217L316.39441514877615 262.18074319223217Q316.39441514877615 270.5514155501269 314.07262281592944 276.6919452725241Q311.78138038219913 282.86302489403784 308.9096898652571 287.04836107298513L308.9096898652571 287.04836107298513Q305.61030076068545 291.875245133377 301.6693637746693 295.38848353176354L301.6693637746693 295.38848353176354Q306.92394642269085 297.37422697432976 311.56753108838427 300.4597667850866Q316.18056585496134 303.5453065958434 319.6938042533478 307.94449206860565Q323.2070426517343 312.3436775413678 325.31498569076615 318.3925575664159Q327.39237883068165 324.4414375914639 327.39237883068165 332.56771075642746L327.39237883068165 332.56771075642746Q327.39237883068165 341.57993099576663 324.9789368004857 349.61455446338095Q322.5654947702898 357.6491779309953 316.8221137364058 363.57585835957775Q311.1092826016382 369.5330886872765 301.6693637746693 373.04632708566305Q292.198895048584 376.5595654840495 278.1153915559217 376.5595654840495L278.1153915559217 376.5595654840495L231.28239621047402 376.5595654840495ZM249.7345352767822 243.0565063453631L249.7345352767822 291.66139583956215L286.48606391381645 291.66139583956215Q289.57160372457327 289.2479538093663 291.9850457547692 285.2764669242338L291.9850457547692 285.2764669242338Q294.1846384911503 281.9770778196621 295.92598274078534 277.0279941628046Q297.69787688953676 272.0789105059471 297.69787688953676 265.0524337091741L297.69787688953676 265.0524337091741Q297.69787688953676 252.06872658470235 290.97689908392783 247.54734151547453Q284.2864711774353 243.0565063453631 272.1887111273393 243.0565063453631L272.1887111273393 243.0565063453631L249.7345352767822 243.0565063453631ZM249.7345352767822 307.0585449942299L249.7345352767822 360.0626199611912L279.6734364108583 360.0626199611912Q294.1846384911503 360.0626199611912 301.4249645817381 352.57789467767213Q308.6958405714423 345.09316939415316 308.6958405714423 332.56771075642746L308.6958405714423 332.56771075642746Q308.6958405714423 327.0687289154747 307.2599953129713 322.4556941488977Q305.8241500545003 317.84265938232056 302.31091165611383 314.42107068128337Q298.79767325772735 310.99948198024606 292.87099282914494 309.04428843679614Q286.9137625014461 307.0585449942299 278.1153915559217 307.0585449942299L278.1153915559217 307.0585449942299L249.7345352767822 307.0585449942299Z " fill="#ee4e34" transform="matrix(1.1094275207381203,0,0,1.1094275207381201,0,-34.55853582940365)"/><path d="M529.3373890745634 335.64668431017253L529.3373890745634 227.91222533774868L541.3240702351036 226.5595616651183L541.3240702351036 271.2182730722694Q544.6328936804609 268.97077035466816 548.2122498603445 267.32676373716356L548.2122498603445 267.32676373716356Q551.2089201504796 265.8284285920961 554.9547580131483 264.5590057608583Q558.700595875817 263.2687727192724 562.4464337384859 263.2687727192724L562.4464337384859 263.2687727192724Q568.6062560015412 263.2687727192724 574.058531112759 265.68275711965896Q579.5316164343251 268.07593130969735 583.6520380832608 272.86227968977414Q587.7724597321965 277.6694382801991 590.165633922235 284.9946323227514Q592.5796183226214 292.34063657565173 592.5796183226214 302.391968173813L592.5796183226214 302.391968173813Q592.5796183226214 313.46300007903415 589.4997071910938 321.0379166457643Q586.4197960595661 328.6128332124945 581.2588638932225 333.25351012013414Q576.0979317268788 337.8941870277738 569.5010950465121 339.99601827293804Q562.9042583661453 342.0978495181022 556.0160787409045 342.0978495181022L556.0160787409045 342.0978495181022Q549.1278991156635 342.0978495181022 544.0918282114088 341.1197696317387Q539.0765675175023 340.14168974537506 535.788554282493 338.93469754518185L535.788554282493 338.93469754518185Q531.897044947387 337.43636240011426 529.3373890745634 335.64668431017253L529.3373890745634 335.64668431017253ZM541.3240702351036 281.99796203261633L541.3240702351036 329.04984762980587Q543.2802300078306 329.79901520233966 545.5277327254319 330.31927046104363Q547.7752354430331 330.86033593009574 550.3973219469012 331.2349197163627Q553.0194084507694 331.60950350262954 556.0160787409045 331.60950350262954L556.0160787409045 331.60950350262954Q562.9042583661453 331.60950350262954 567.5449352737851 329.65334372990253Q572.1856121814246 327.6971839571754 574.8909395266855 323.9513460945067Q577.5962668719462 320.20550823183794 578.720018230747 314.8989045930572Q579.8437695895475 309.57149074392817 579.8437695895475 302.9746540635615L579.8437695895475 302.9746540635615Q579.8437695895475 297.7304810558252 578.720018230747 292.48630804808886Q577.5962668719462 287.24213504035265 575.1822824715598 283.12171339141696Q572.7891082815213 279.00129174248127 569.2721827326823 276.37920523861317Q565.7552571838432 273.75711873474495 561.1145802762037 273.75711873474495L561.1145802762037 273.75711873474495Q557.9514283032834 273.75711873474495 554.5177435958369 275.04735177633086Q551.0632486780423 276.3167746075686 548.0665783879074 277.96078122507333L548.0665783879074 277.96078122507333Q544.6328936804609 279.75045931501506 541.3240702351036 281.99796203261633L541.3240702351036 281.99796203261633ZM610.1018154357721 340.14168974537506L610.1018154357721 227.91222533774868L622.0884965963122 226.5595616651183L622.0884965963122 340.14168974537506L610.1018154357721 340.14168974537506ZM652.2008709700997 302.8289825911244L652.2008709700997 302.8289825911244Q652.2008709700997 317.37531962448816 658.7144668090737 324.4924115635589Q665.2488728583958 331.60950350262954 676.3199047636169 331.60950350262954L676.3199047636169 331.60950350262954Q687.266075406749 331.60950350262954 693.4050874594564 324.55484219460334Q699.5440995121635 317.5209910969253 699.5440995121635 303.43247869122104L699.5440995121635 303.43247869122104Q699.5440995121635 288.44912724054586 693.0305036731893 281.1031229876454Q686.5169078342153 273.75711873474495 675.279394246209 273.75711873474495L675.279394246209 273.75711873474495Q664.0418806582027 273.75711873474495 658.1317809193251 281.04069235660097Q652.2008709700997 288.30345576810873 652.2008709700997 302.8289825911244ZM639.4650222370258 302.68331111868724L639.4650222370258 302.68331111868724Q639.4650222370258 291.3001260582438 643.0651886272574 283.7252094915136Q646.665355017489 276.1711031351315 652.2008709700997 271.5928568585364Q657.7571971330583 267.01461058194116 664.1251214995953 265.14169165060673Q670.4930458661322 263.2687727192724 676.1742332911799 263.2687727192724L676.1742332911799 263.2687727192724Q681.5640777713534 263.2687727192724 687.9320021378901 264.9960201781696Q694.299926504427 266.7232676370669 699.7105811949486 271.13503223087685Q705.1004256751221 275.56760703503494 708.7005920653537 282.97604191897983Q712.2799482452372 290.40528701327287 712.2799482452372 301.78847207371643L712.2799482452372 301.78847207371643Q712.2799482452372 313.6294817618194 708.6173512239611 321.41250043203115Q704.9547542026851 329.195519102243 699.3984280397262 333.7737653788382Q693.8629120871158 338.35201165543333 687.4117468791862 340.22493058676775Q680.9813918816048 342.0978495181022 675.425065718646 342.0978495181022L675.425065718646 342.0978495181022Q669.7438782935985 342.0978495181022 663.438384558106 340.2873612178122Q657.1537010329616 338.49768312787046 651.8262871838326 334.06510832371237Q646.519683545052 329.65334372990253 642.9819477858648 322.0159965321278Q639.4650222370258 314.3786493343531 639.4650222370258 302.68331111868724ZM788.6950406436806 266.57759616462977L788.6950406436806 347.3420225258384Q788.6950406436806 352.87753847844897 787.5088586538354 358.1217114861853Q786.3018664536421 363.3658844939216 782.9306123772401 367.4863061428572Q779.5593583008383 371.6067277917929 773.5035870895238 374.08314282322397Q767.4270056678611 376.55955785465494 757.5421557524851 376.55955785465494L757.5421557524851 376.55955785465494Q751.2366620169926 376.39307617186967 746.595985109353 375.81039028212115Q741.9553082017133 375.2068941820246 737.751645711385 374.08314282322397Q733.5687934314049 372.95939146442333 730.1142985136103 371.46105631935575L730.1142985136103 371.46105631935575L733.2566402761825 360.9727103038832Q739.1043093840153 363.51155596635874 745.180890805678 364.8642196389891Q751.2366620169926 366.2168833116194 756.0438206074175 366.2168833116194L756.0438206074175 366.2168833116194Q761.2879936151539 366.2168833116194 765.1795029502598 365.15556258386334Q769.0710122853657 364.1150520664553 771.6930987892338 361.6386370350243Q774.3151852931019 359.16222200359323 775.5846081243396 355.12504119605023Q776.8748411659255 351.08786038850724 776.8748411659255 345.0945198082371L776.8748411659255 345.0945198082371L776.8748411659255 334.14834916510506Q773.7116891930054 336.2501804102692 770.3404351166034 337.9774278691665Q766.9691810402016 339.68386511771564 763.1609125464884 340.89085731790885Q759.3318338424269 342.0978495181022 755.7316674521951 342.0978495181022L755.7316674521951 342.0978495181022Q741.8096367292762 342.0978495181022 733.7144649038421 332.27543023377063Q725.6192930784077 322.4530109494392 725.6192930784077 302.9746540635615L725.6192930784077 302.9746540635615Q725.6192930784077 291.7371404755552 729.1362186272468 284.18303411917304Q732.6739543864339 276.6081175524429 738.0637988666074 271.9674406448032Q743.4536433467808 267.32676373716356 749.9048085547104 265.308173333392Q756.3351635522918 263.2687727192724 762.1828326601249 263.2687727192724L762.1828326601249 263.2687727192724Q769.8201798578993 263.2687727192724 776.1881042244363 264.5590057608583Q782.5560285909733 265.8284285920961 788.6950406436806 266.57759616462977L788.6950406436806 266.57759616462977ZM757.0843311248257 331.60950350262954L757.0843311248257 331.60950350262954Q760.393154570183 331.60950350262954 763.8268392776295 330.4025113024362Q767.281334195424 329.195519102243 770.5069167993888 327.5515124847384Q773.7116891930054 325.9075058672337 776.8748411659255 323.6600031496324L776.8748411659255 323.6600031496324L776.8748411659255 275.8589499799091Q775.0643528656358 275.4219355625978 772.6711786755973 274.81843946250115L772.6711786755973 274.81843946250115Q770.5693474304333 274.50628630727874 767.8848302955205 274.1317025210119Q765.1795029502598 273.75711873474495 762.1828326601249 273.75711873474495L762.1828326601249 273.75711873474495Q755.8981491349805 273.75711873474495 751.403143699778 276.0046214523462Q746.9081382645754 278.2521241699475 743.9738986054849 282.1644437154016Q741.0604691567423 286.05595305050747 739.707805484112 291.3001260582438Q738.3551418114816 296.5442990659801 738.3551418114816 302.391968173813L738.3551418114816 302.391968173813Q738.3551418114816 307.6361411815493 739.4788931702824 312.8803141892856Q740.6026445290829 318.12448719702195 742.9958187191214 322.3073394770021Q745.4098031195078 326.51100196733034 748.8434878269543 329.04984762980587Q752.2979827447489 331.60950350262954 757.0843311248257 331.60950350262954Z " fill="#fcedda" transform="matrix(1.1094275207381203,0,0,1.1094275207381201,0,-34.55853582940365)"/></g></svg>